<svg xmlns="http://www.w3.org/2000/svg" fill="none" viewBox="0 0 340 250"><g data-v-0dd9719b="" fill="#343c3e" class="bordersvg b-d1" transform="translate(65.65977048873901,66.0875060577282)"><path fill-opacity="0" stroke="#343c3e" stroke-width="3" d="M 107.82499694824219 21.95953369140625 A 58.912498474121094 58.912498474121094 0 1 0 107.82499694824219 95.86546325683594"></path> <g transform="translate(10,21.95953369140625)"><g><rect data-gra="graph-name-bg" stroke-width="2" class="i-icon-bg" x="0" y="0" width="195.64999389648438" height="73.90592956542969" fill-opacity="0"></rect> <!----> <!----> </g> <g transform="translate(10,3)"><g data-gra="path-name" fill-rule="" class="tp-name"><g transform="scale(1)"><g><path d="M23.77-19.81L23.77-19.81Q23.77-17.84 22.74-16.39 21.7-14.94 19.64-14.06L19.64-14.06Q22.19-13.22 23.46-11.55 24.74-9.89 24.74-7.6L24.74-7.6Q24.74-3.43 21.7-1.41 18.67 0.62 12.92 0.62L12.92 0.62Q12.08 0.62 11.14 0.57 10.19 0.53 9.23 0.42 8.26 0.31 7.29 0.11 6.33-0.09 5.49-0.35L5.49-0.35Q3.38-1.05 3.38-2.94L3.38-2.94 3.38-24.43Q3.38-25.26 3.82-25.7 4.26-26.14 5.05-26.4L5.05-26.4Q6.55-26.89 8.52-27.09 10.5-27.28 12.65-27.28L12.65-27.28Q17.97-27.28 20.87-25.46 23.77-23.64 23.77-19.81ZM18.94-7.82L18.94-7.82Q18.94-9.58 17.68-10.59 16.43-11.6 14.06-11.6L14.06-11.6 8.92-11.6 8.92-4.26Q9.75-4.04 10.92-3.95 12.08-3.87 13.22-3.87L13.22-3.87Q15.9-3.87 17.42-4.81 18.94-5.76 18.94-7.82ZM8.92-22.58L8.92-15.77 13.36-15.77Q15.73-15.77 16.89-16.74 18.06-17.71 18.06-19.42L18.06-19.42Q18.06-22.89 12.7-22.89L12.7-22.89Q11.6-22.89 10.61-22.8 9.62-22.71 8.92-22.58L8.92-22.58ZM33.21 0.31L33.21 0.31Q31.55 0.31 30.84-0.31 30.14-0.92 30.14-2.37L30.14-2.37 30.14-26.67Q30.53-26.76 31.28-26.89 32.03-27.02 32.78-27.02L32.78-27.02Q34.36-27.02 35.1-26.45 35.85-25.88 35.85-24.34L35.85-24.34 35.85-0.04Q35.46 0.04 34.73 0.18 34.01 0.31 33.21 0.31ZM65.29-12.96L65.29-3.69Q65.29-2.59 64.83-2 64.36-1.41 63.35-0.88L63.35-0.88Q62.78-0.53 61.93-0.24 61.07 0.04 60.04 0.24 59 0.44 57.91 0.57 56.81 0.7 55.71 0.7L55.71 0.7Q52.59 0.7 49.93-0.11 47.27-0.92 45.32-2.64 43.36-4.35 42.27-6.99 41.17-9.62 41.17-13.27L41.17-13.27Q41.17-16.74 42.29-19.4 43.41-22.06 45.36-23.81 47.32-25.57 49.91-26.47 52.5-27.37 55.49-27.37L55.49-27.37Q57.47-27.37 59.07-27.04 60.67-26.71 61.84-26.16 63-25.61 63.62-24.85 64.23-24.08 64.23-23.24L64.23-23.24Q64.23-22.36 63.75-21.7 63.27-21.04 62.65-20.69L62.65-20.69Q61.51-21.44 59.88-22.08 58.26-22.71 55.88-22.71L55.88-22.71Q53.95-22.71 52.33-22.08 50.7-21.44 49.54-20.25 48.37-19.07 47.71-17.31 47.05-15.55 47.05-13.31L47.05-13.31Q47.05-10.9 47.71-9.14 48.37-7.38 49.54-6.22 50.7-5.05 52.3-4.5 53.91-3.95 55.8-3.95L55.8-3.95Q57.07-3.95 58.13-4.17 59.18-4.39 59.75-4.7L59.75-4.7 59.75-10.81 54.13-10.81Q53.91-11.16 53.73-11.73 53.56-12.3 53.56-13L53.56-13Q53.56-14.15 54.11-14.72 54.65-15.29 55.53-15.29L55.53-15.29 62.91-15.29Q64.01-15.29 64.65-14.67 65.29-14.06 65.29-12.96L65.29-12.96ZM100.26-23.24L100.26-23.24Q100.26-22.36 99.78-21.73 99.29-21.09 98.68-20.74L98.68-20.74Q97.53-21.48 96.13-22.1 94.72-22.71 92.66-22.71L92.66-22.71Q88.92-22.71 86.7-20.3 84.49-17.88 84.49-13.31L84.49-13.31Q84.49-8.66 86.77-6.33 89.06-4 92.92-4L92.92-4Q94.94-4 96.41-4.55 97.89-5.1 99.03-5.84L99.03-5.84Q99.64-5.45 100.04-4.77 100.43-4.09 100.43-3.21L100.43-3.21Q100.43-2.46 100.04-1.85 99.64-1.23 98.72-0.75L98.72-0.75Q97.84-0.22 96.24 0.24 94.64 0.7 92.26 0.7L92.26 0.7Q89.36 0.7 86.88-0.15 84.4-1.01 82.55-2.75 80.71-4.48 79.65-7.12 78.6-9.75 78.6-13.31L78.6-13.31Q78.6-16.74 79.65-19.35 80.71-21.97 82.53-23.75 84.35-25.53 86.79-26.45 89.23-27.37 91.96-27.37L91.96-27.37Q93.84-27.37 95.38-27.04 96.92-26.71 98.02-26.14 99.12-25.57 99.69-24.82 100.26-24.08 100.26-23.24ZM111.2-0.04L111.2-0.04Q110.8 0.04 110.08 0.18 109.35 0.31 108.52 0.31L108.52 0.31Q106.85 0.31 106.17-0.31 105.49-0.92 105.49-2.37L105.49-2.37 105.49-26.67Q105.84-26.76 106.61-26.89 107.38-27.02 108.12-27.02L108.12-27.02Q109.7-27.02 110.45-26.45 111.2-25.88 111.2-24.34L111.2-24.34 111.2-15.68 122.18-15.68 122.18-26.67Q122.53-26.76 123.3-26.89 124.07-27.02 124.82-27.02L124.82-27.02Q126.4-27.02 127.15-26.43 127.89-25.83 127.89-24.3L127.89-24.3 127.89-0.04Q127.5 0.04 126.77 0.18 126.05 0.31 125.21 0.31L125.21 0.31Q123.54 0.31 122.86-0.31 122.18-0.92 122.18-2.37L122.18-2.37 122.18-11.12 111.2-11.12 111.2-0.04ZM150.83-1.89L149.51-6.28 139.67-6.28Q139.18-4.66 138.64-2.9 138.09-1.14 137.73 0L137.73 0Q137.3 0.18 136.79 0.31 136.29 0.44 135.54 0.44L135.54 0.44Q134.04 0.44 133.21-0.15 132.37-0.75 132.37-1.85L132.37-1.85Q132.37-2.37 132.53-2.88 132.68-3.38 132.9-4.04L132.9-4.04Q133.25-5.27 133.85-7.01 134.44-8.74 135.12-10.79 135.8-12.83 136.59-15 137.38-17.18 138.11-19.22 138.83-21.26 139.51-23.04 140.2-24.82 140.68-26.1L140.68-26.1Q141.25-26.4 142.37-26.71 143.49-27.02 144.63-27.02L144.63-27.02Q146.17-27.02 147.44-26.56 148.72-26.1 149.07-25.09L149.07-25.09Q149.95-22.67 151-19.53 152.06-16.39 153.13-13.05 154.21-9.71 155.22-6.5 156.23-3.3 157.02-0.75L157.02-0.75Q156.58-0.26 155.81 0.07 155.05 0.4 153.99 0.4L153.99 0.4Q152.45 0.4 151.82-0.15 151.18-0.7 150.83-1.89L150.83-1.89ZM144.81-22.01L144.59-22.01Q144.19-20.91 143.73-19.55 143.27-18.19 142.77-16.72 142.26-15.25 141.73-13.73 141.21-12.21 140.72-10.76L140.72-10.76 148.37-10.76 144.81-22.01ZM178.42-26.67L178.42-26.67Q178.64-26.32 178.84-25.72 179.03-25.13 179.03-24.43L179.03-24.43Q179.03-23.24 178.48-22.63 177.94-22.01 176.97-22.01L176.97-22.01 170.91-22.01 170.91-0.04Q170.55 0.04 169.81 0.18 169.06 0.31 168.27 0.31L168.27 0.31Q166.6 0.31 165.9-0.31 165.19-0.92 165.19-2.37L165.19-2.37 165.19-22.01 157.81-22.01Q157.59-22.41 157.4-22.98 157.2-23.55 157.2-24.25L157.2-24.25Q157.2-25.48 157.75-26.08 158.3-26.67 159.26-26.67L159.26-26.67 178.42-26.67Z" transform="translate(-3.380000114440918, 27.3700008392334)"></path></g> <!----> <!----> <!----> <!----> <!----> <!----> <g data-gra="path-name-1" fill="#0bbf64" transform="translate(0,31.07000160217285)"><g transform="scale(1.00948)"><path d="M30.89-25.76L30.89-25.76Q30.89-23.19 29.55-21.3 28.21-19.42 25.53-18.27L25.53-18.27Q28.84-17.19 30.49-15.02 32.15-12.85 32.15-9.88L32.15-9.88Q32.15-4.45 28.21-1.83 24.27 0.8 16.79 0.8L16.79 0.8Q15.7 0.8 14.48 0.74 13.25 0.69 11.99 0.54 10.74 0.4 9.48 0.14 8.22-0.11 7.14-0.46L7.14-0.46Q4.4-1.37 4.4-3.83L4.4-3.83 4.4-31.75Q4.4-32.84 4.97-33.41 5.54-33.98 6.57-34.32L6.57-34.32Q8.51-34.95 11.08-35.21 13.65-35.46 16.45-35.46L16.45-35.46Q23.36-35.46 27.13-33.09 30.89-30.72 30.89-25.76ZM24.61-10.16L24.61-10.16Q24.61-12.45 22.99-13.76 21.36-15.08 18.27-15.08L18.27-15.08 11.59-15.08 11.59-5.54Q12.68-5.25 14.19-5.14 15.7-5.03 17.19-5.03L17.19-5.03Q20.67-5.03 22.64-6.25 24.61-7.48 24.61-10.16ZM11.59-29.35L11.59-20.5 17.36-20.5Q20.44-20.5 21.96-21.76 23.47-23.01 23.47-25.24L23.47-25.24Q23.47-29.75 16.5-29.75L16.5-29.75Q15.08-29.75 13.79-29.64 12.51-29.52 11.59-29.35L11.59-29.35ZM46.6-12.11L46.6-0.06Q46.09 0.06 45.14 0.23 44.2 0.4 43.12 0.4L43.12 0.4Q40.95 0.4 40.06-0.4 39.18-1.2 39.18-3.08L39.18-3.08 39.18-31.75Q39.18-32.84 39.75-33.41 40.32-33.98 41.35-34.32L41.35-34.32Q43.17-34.95 45.66-35.21 48.14-35.46 50.77-35.46L50.77-35.46Q58.31-35.46 62.07-32.35 65.84-29.24 65.84-23.76L65.84-23.76Q65.84-20.16 63.96-17.5 62.07-14.85 58.76-13.42L58.76-13.42Q61.28-10.16 63.59-7.22 65.9-4.28 67.04-2.63L67.04-2.63Q66.59-1.14 65.44-0.31 64.3 0.51 62.93 0.51L62.93 0.51Q61.16 0.51 60.22-0.29 59.28-1.09 58.36-2.46L58.36-2.46 51.91-12.11 46.6-12.11ZM46.48-17.93L51.17-17.93Q54.42-17.93 56.39-19.36 58.36-20.79 58.36-23.7L58.36-23.7Q58.36-29.47 50.65-29.47L50.65-29.47Q49.51-29.47 48.45-29.35 47.4-29.24 46.48-29.12L46.48-29.12 46.48-17.93ZM94.91-2.46L93.2-8.17 80.41-8.17Q79.78-6.05 79.06-3.77 78.35-1.48 77.89 0L77.89 0Q77.32 0.23 76.67 0.4 76.01 0.57 75.04 0.57L75.04 0.57Q73.1 0.57 72.01-0.2 70.93-0.97 70.93-2.4L70.93-2.4Q70.93-3.08 71.13-3.74 71.33-4.4 71.61-5.25L71.61-5.25Q72.07-6.85 72.84-9.11 73.61-11.36 74.5-14.02 75.38-16.68 76.41-19.5 77.44-22.33 78.38-24.98 79.32-27.64 80.21-29.95 81.09-32.27 81.72-33.92L81.72-33.92Q82.46-34.32 83.92-34.72 85.37-35.12 86.86-35.12L86.86-35.12Q88.86-35.12 90.51-34.52 92.17-33.92 92.63-32.61L92.63-32.61Q93.77-29.47 95.14-25.38 96.51-21.3 97.91-16.96 99.31-12.62 100.62-8.45 101.94-4.28 102.96-0.97L102.96-0.97Q102.39-0.34 101.39 0.09 100.39 0.51 99.02 0.51L99.02 0.51Q97.02 0.51 96.2-0.2 95.37-0.91 94.91-2.46L94.91-2.46ZM87.09-28.61L86.8-28.61Q86.29-27.18 85.69-25.41 85.09-23.64 84.43-21.73 83.78-19.82 83.09-17.85 82.4-15.88 81.78-13.99L81.78-13.99 91.71-13.99 87.09-28.61ZM118.67-5.2L118.67-5.2Q121.98-5.2 123.52-6.48 125.06-7.77 125.06-9.71L125.06-9.71Q125.06-11.48 123.86-12.53 122.66-13.59 120.21-14.33L120.21-14.33 116.55-15.48Q114.38-16.16 112.61-17.02 110.84-17.87 109.59-19.05 108.33-20.22 107.65-21.79 106.96-23.36 106.96-25.53L106.96-25.53Q106.96-30.15 110.44-32.86 113.93-35.58 119.98-35.58L119.98-35.58Q122.38-35.58 124.41-35.21 126.43-34.84 127.92-34.18 129.4-33.52 130.23-32.55 131.06-31.58 131.06-30.38L131.06-30.38Q131.06-29.24 130.52-28.41 129.97-27.58 129.18-27.07L129.18-27.07Q127.8-28.04 125.55-28.75 123.29-29.47 120.61-29.47L120.61-29.47Q117.64-29.47 116.1-28.41 114.56-27.35 114.56-25.53L114.56-25.53Q114.56-24.04 115.61-23.24 116.67-22.44 118.95-21.7L118.95-21.7 122.21-20.67Q127.18-19.19 129.92-16.62 132.66-14.05 132.66-9.65L132.66-9.65Q132.66-7.31 131.74-5.37 130.83-3.43 129.09-2.03 127.35-0.63 124.75 0.14 122.15 0.91 118.84 0.91L118.84 0.91Q116.21 0.91 114.01 0.46 111.81 0 110.22-0.77 108.62-1.54 107.73-2.6 106.85-3.65 106.85-4.91L106.85-4.91Q106.85-6.22 107.62-7.17 108.39-8.11 109.42-8.57L109.42-8.57Q110.84-7.31 113.19-6.25 115.53-5.2 118.67-5.2ZM143.22 0.4L143.22 0.4Q141.05 0.4 140.14-0.4 139.23-1.2 139.23-3.08L139.23-3.08 139.23-34.66Q139.74-34.78 140.71-34.95 141.68-35.12 142.65-35.12L142.65-35.12Q144.71-35.12 145.68-34.38 146.65-33.64 146.65-31.64L146.65-31.64 146.65-0.06Q146.14 0.06 145.19 0.23 144.25 0.4 143.22 0.4ZM159.38 0.11L159.38 0.11Q157.56 0.11 156.5-0.97 155.44-2.06 155.44-3.88L155.44-3.88 155.44-34.66Q155.9-34.78 156.9-34.95 157.9-35.12 158.87-35.12L158.87-35.12Q160.93-35.12 161.9-34.38 162.87-33.64 162.87-31.64L162.87-31.64 162.87-6 177.54-6Q177.83-5.54 178.12-4.77 178.4-4 178.4-3.08L178.4-3.08Q178.4-1.54 177.69-0.71 176.97 0.11 175.72 0.11L175.72 0.11 159.38 0.11Z" transform="translate(-4.400000095367432, 35.58000183105469)"></path></g></g></g></g> <!----></g></g></g></svg>